<svg width="40" height="40" viewBox="0 0 40 40" fill="none" xmlns="http://www.w3.org/2000/svg">
<g clip-path="url(#clip0_13_8990)">
<path d="M0 20C0 31.0457 8.95431 40 20 40C31.0457 40 40 31.0457 40 20C40 8.95431 31.0457 0 20 0C8.95431 0 0 8.95431 0 20Z" fill="#1E7B74"/>
<path d="M17.3 31.3375C16.5344 30.0884 15.5221 29.0085 14.325 28.1638C13.1278 27.3191 11.771 26.7275 10.3375 26.425H10.225C10.0924 26.425 9.96519 26.4777 9.87142 26.5715C9.77765 26.6653 9.72498 26.7924 9.72498 26.9251C9.72585 27.0331 9.76085 27.1381 9.82498 27.2251C11.501 29.6011 13.9479 31.3237 16.75 32.1H16.875C16.9406 32.1 17.0057 32.0871 17.0663 32.062C17.127 32.0369 17.1821 32 17.2285 31.9536C17.275 31.9072 17.3118 31.8521 17.3369 31.7914C17.362 31.7307 17.375 31.6657 17.375 31.6001C17.3616 31.5096 17.3364 31.4214 17.3 31.3375V31.3375Z" fill="white"/>
<path d="M32.0625 16.6625C32.0685 16.6126 32.0685 16.5623 32.0625 16.5125C31.4137 14.3078 30.1698 12.3247 28.4674 10.7811C26.7649 9.23741 24.6699 8.19294 22.4125 7.76245H22.325C22.1924 7.76245 22.0652 7.81513 21.9714 7.9089C21.8777 8.00267 21.825 8.12984 21.825 8.26245V8.34995C22.961 15.2214 22.2092 22.2724 19.65 28.75C19.6127 28.8421 19.5488 28.9211 19.4664 28.9767C19.384 29.0324 19.2869 29.0623 19.1875 29.0625C19.1224 29.0641 19.0577 29.0527 18.9971 29.029C18.9365 29.0052 18.8813 28.9696 18.8347 28.9242C18.7881 28.8787 18.751 28.8244 18.7258 28.7644C18.7005 28.7045 18.6875 28.64 18.6875 28.575C18.6875 28.575 18.6125 27.75 18.5625 27.325C17.8729 21.3483 16.0621 15.5553 13.225 10.25C13.1972 10.183 13.1555 10.1227 13.1027 10.0731C13.05 10.0234 12.9872 9.98554 12.9187 9.96191C12.8502 9.93828 12.7774 9.92946 12.7053 9.93602C12.6331 9.94257 12.5631 9.96436 12.5 9.99995V9.99995C10.7346 11.3504 9.35874 13.1447 8.51249 15.2C8.47213 15.3116 8.46986 15.4335 8.50604 15.5465C8.54222 15.6596 8.61481 15.7575 8.71249 15.825C11.4619 17.5128 13.7466 19.86 15.3596 22.6539C16.9727 25.4478 17.863 28.6 17.95 31.825C17.9545 31.9445 18.0008 32.0587 18.0807 32.1477C18.1606 32.2368 18.2691 32.295 18.3875 32.3125C18.6875 32.3125 18.975 32.3875 19.275 32.4C19.3916 32.3988 19.5041 32.357 19.5932 32.2817C19.6822 32.2063 19.7421 32.1023 19.7625 31.9875C20.3644 28.6909 21.7746 25.5951 23.8666 22.9773C25.9587 20.3595 28.6673 18.3015 31.75 16.9875C31.8261 16.9656 31.895 16.924 31.9499 16.8669C32.0047 16.8098 32.0436 16.7393 32.0625 16.6625Z" fill="white"/>
<path d="M30.8625 26.1499C30.8625 26.0173 30.8099 25.8901 30.7161 25.7963C30.6223 25.7026 30.4951 25.6499 30.3625 25.6499H30.25C26.3815 26.4907 22.9105 28.6138 20.4 31.6749C20.3243 31.766 20.2843 31.8815 20.2875 31.9999C20.2875 32.1325 20.3402 32.2597 20.434 32.3535C20.5277 32.4472 20.6549 32.4999 20.7875 32.4999V32.4999C22.8258 32.3773 24.803 31.7571 26.5463 30.6938C28.2895 29.6304 29.7457 28.1561 30.7875 26.3999C30.8332 26.3242 30.859 26.2382 30.8625 26.1499V26.1499Z" fill="white"/>
</g>
<defs>
<clipPath id="clip0_13_8990">
<rect width="40" height="40" rx="20" fill="white"/>
</clipPath>
</defs>
</svg>
