<svg width="40" height="40" viewBox="0 0 40 40" fill="none" xmlns="http://www.w3.org/2000/svg">
<g clip-path="url(#clip0_13_9020)">
<path d="M0 20C0 31.0457 8.95431 40 20 40C31.0457 40 40 31.0457 40 20C40 8.95431 31.0457 0 20 0C8.95431 0 0 8.95431 0 20Z" fill="#AA0023"/>
<path d="M25.2 8.75H14.8125C13.8677 8.75 12.9616 9.12533 12.2935 9.79343C11.6254 10.4615 11.25 11.3677 11.25 12.3125V27.6875C11.2484 28.1547 11.339 28.6177 11.5167 29.0499C11.6943 29.482 11.9556 29.8748 12.2854 30.2058C12.6152 30.5368 13.0071 30.7994 13.4386 30.9786C13.8701 31.1578 14.3328 31.25 14.8 31.25H25.1875C26.1292 31.2467 27.0315 30.8721 27.6986 30.2074C28.3656 29.5427 28.7434 28.6416 28.75 27.7V12.3125C28.75 11.3698 28.3764 10.4656 27.711 9.79784C27.0456 9.1301 26.1427 8.75331 25.2 8.75V8.75ZM13.75 12.6C13.7511 12.3657 13.818 12.1364 13.9432 11.9382C14.0683 11.7401 14.2466 11.5811 14.4577 11.4795C14.6689 11.3778 14.9043 11.3376 15.1373 11.3633C15.3702 11.389 15.5912 11.4797 15.775 11.625L18.75 14.025C18.896 14.1421 19.0138 14.2905 19.0948 14.4593C19.1758 14.628 19.2178 14.8128 19.2178 15C19.2178 15.1872 19.1758 15.372 19.0948 15.5407C19.0138 15.7095 18.896 15.8579 18.75 15.975L15.75 18.375C15.566 18.5131 15.3475 18.5977 15.1184 18.6195C14.8894 18.6414 14.6588 18.5996 14.452 18.4988C14.2452 18.398 14.0703 18.242 13.9464 18.0482C13.8225 17.8543 13.7546 17.63 13.75 17.4V12.6ZM25 28.75H15C14.6685 28.75 14.3506 28.6183 14.1161 28.3839C13.8817 28.1495 13.75 27.8315 13.75 27.5C13.75 27.1685 13.8817 26.8505 14.1161 26.6161C14.3506 26.3817 14.6685 26.25 15 26.25H25C25.3315 26.25 25.6495 26.3817 25.8839 26.6161C26.1183 26.8505 26.25 27.1685 26.25 27.5C26.25 27.8315 26.1183 28.1495 25.8839 28.3839C25.6495 28.6183 25.3315 28.75 25 28.75ZM25 23.75H15C14.6685 23.75 14.3506 23.6183 14.1161 23.3839C13.8817 23.1495 13.75 22.8315 13.75 22.5C13.75 22.1685 13.8817 21.8505 14.1161 21.6161C14.3506 21.3817 14.6685 21.25 15 21.25H25C25.3315 21.25 25.6495 21.3817 25.8839 21.6161C26.1183 21.8505 26.25 22.1685 26.25 22.5C26.25 22.8315 26.1183 23.1495 25.8839 23.3839C25.6495 23.6183 25.3315 23.75 25 23.75ZM25 18.75H22.5C22.1685 18.75 21.8506 18.6183 21.6161 18.3839C21.3817 18.1495 21.25 17.8315 21.25 17.5C21.25 17.1685 21.3817 16.8505 21.6161 16.6161C21.8506 16.3817 22.1685 16.25 22.5 16.25H25C25.3315 16.25 25.6495 16.3817 25.8839 16.6161C26.1183 16.8505 26.25 17.1685 26.25 17.5C26.25 17.8315 26.1183 18.1495 25.8839 18.3839C25.6495 18.6183 25.3315 18.75 25 18.75ZM25 13.75H22.5C22.1685 13.75 21.8506 13.6183 21.6161 13.3839C21.3817 13.1495 21.25 12.8315 21.25 12.5C21.25 12.1685 21.3817 11.8505 21.6161 11.6161C21.8506 11.3817 22.1685 11.25 22.5 11.25H25C25.3315 11.25 25.6495 11.3817 25.8839 11.6161C26.1183 11.8505 26.25 12.1685 26.25 12.5C26.25 12.8315 26.1183 13.1495 25.8839 13.3839C25.6495 13.6183 25.3315 13.75 25 13.75Z" fill="white"/>
</g>
<defs>
<clipPath id="clip0_13_9020">
<rect width="40" height="40" rx="20" fill="white"/>
</clipPath>
</defs>
</svg>
